<svg width="36" height="36" viewBox="0 0 36 36" fill="none" xmlns="http://www.w3.org/2000/svg">
<g id="Solid/x">
<path id="Icon" fill-rule="evenodd" clip-rule="evenodd" d="M7.72643 7.72716C8.42937 7.02422 9.56907 7.02422 10.272 7.72716L17.9992 15.4544L25.7264 7.72716C26.4294 7.02422 27.5691 7.02422 28.272 7.72716C28.975 8.4301 28.975 9.5698 28.272 10.2727L20.5448 18L28.272 25.7272C28.975 26.4301 28.975 27.5698 28.272 28.2727C27.5691 28.9757 26.4294 28.9757 25.7264 28.2727L17.9992 20.5455L10.272 28.2727C9.56907 28.9757 8.42937 28.9757 7.72643 28.2727C7.02348 27.5698 7.02348 26.4301 7.72643 25.7272L15.4536 18L7.72643 10.2727C7.02348 9.5698 7.02348 8.4301 7.72643 7.72716Z" fill="#E4E4E4"/>
</g>
</svg>
