<svg width="59" height="59" viewBox="0 0 59 59" fill="none" xmlns="http://www.w3.org/2000/svg">
<path id="Star 1" d="M25.8968 2.47434C27.3514 -0.543009 31.6486 -0.543004 33.1032 2.47434L40.1148 17.019C40.5078 17.8343 41.1657 18.4922 41.981 18.8852L56.5257 25.8968C59.543 27.3514 59.543 31.6486 56.5257 33.1032L41.981 40.1148C41.1657 40.5078 40.5078 41.1657 40.1148 41.981L33.1032 56.5257C31.6486 59.543 27.3514 59.543 25.8968 56.5257L18.8852 41.981C18.4922 41.1657 17.8343 40.5078 17.019 40.1148L2.47434 33.1032C-0.543009 31.6486 -0.543004 27.3514 2.47434 25.8968L17.019 18.8852C17.8343 18.4922 18.4922 17.8343 18.8852 17.019L25.8968 2.47434Z" fill="#F2D15D" fill-opacity="0.2"/>
</svg>
