<svg width="141" height="141" viewBox="0 0 63 111" fill="none" xmlns="http://www.w3.org/2000/svg">
<path id="Star 1" d="M40.3843 6.95719C43.753 -1.15692 55.247 -1.15692 58.6157 6.9572L63.6267 19.0275C65.3373 23.1478 69.5992 25.6084 74.0228 25.0297L86.9815 23.3342C95.6928 22.1945 101.44 32.1486 96.0971 39.123L88.1495 49.4978C85.4364 53.0394 85.4364 57.9606 88.1495 61.5022L96.0971 71.877C101.44 78.8514 95.6928 88.8055 86.9815 87.6658L74.0228 85.9703C69.5992 85.3916 65.3373 87.8522 63.6267 91.9725L58.6156 104.043C55.247 112.157 43.753 112.157 40.3843 104.043L35.3733 91.9725C33.6627 87.8522 29.4008 85.3916 24.9772 85.9703L12.0185 87.6658C3.30718 88.8055 -2.43985 78.8514 2.90287 71.877L10.8505 61.5022C13.5636 57.9606 13.5636 53.0394 10.8505 49.4978L2.90287 39.123C-2.43985 32.1486 3.30718 22.1945 12.0185 23.3342L24.9772 25.0297C29.4008 25.6084 33.6627 23.1478 35.3733 19.0275L40.3843 6.95719Z" fill="#F2D15D"/>
</svg>
