<svg width="141" height="141" viewBox="0 0 87 101" fill="none" xmlns="http://www.w3.org/2000/svg">
<path d="M2.76283 10.9269C2.1923 2.15983 12.4993 -2.92735 19.1113 2.85783L28.947 11.4637C32.3046 14.4014 37.2153 14.7216 40.9259 12.2447L51.7959 4.98896C59.1031 0.11134 68.6622 6.49386 66.9581 15.1126L64.4231 27.9335C63.5577 32.3101 65.7358 36.723 69.7361 38.6981L81.4548 44.4839C89.3325 48.3733 88.5847 59.843 80.2686 62.6765L67.8978 66.8916C63.6749 68.3305 60.9422 72.4232 61.232 76.8751L62.0807 89.9167C62.6512 98.6837 52.3442 103.771 45.7322 97.9857L35.8965 89.3799C32.5389 86.4422 27.6282 86.122 23.9176 88.5988L13.0476 95.8546C5.74039 100.732 -3.81873 94.3497 -2.1146 85.731L0.420409 72.9101C1.28577 68.5335 -0.892316 64.1205 -4.89263 62.1455L-16.6113 56.3597C-24.4891 52.4703 -23.7412 41.0006 -15.4251 38.167L-3.05433 33.9519C1.16858 32.5131 3.90126 28.4203 3.61154 23.9684L2.76283 10.9269Z" fill="#F2D15D"/>
</svg>
